Coordinates
version=1
nRows=10
nColumns=22
inDegrees=yes

Units are S.I. units (second, meters, Newtons, ...)
If the header above contains a line with 'inDegrees', this indicates whether rotational values are in degrees (yes) or radians (no).

endheader
time	pelvis_tilt	pelvis_list	pelvis_rotation	pelvis_tx	pelvis_ty	pelvis_tz	hip_flexion_r	hip_adduction_r	hip_rotation_r	knee_angle_r	ankle_angle_r	subtalar_angle_r	hip_flexion_l	hip_adduction_l	hip_rotation_l	knee_angle_l	ankle_angle_l	subtalar_angle_l	lumbar_extension	lumbar_bending	lumbar_rotation
      1.83000000	     -3.47642782	     -3.51967935	    114.20324767	     -0.62384653	      1.03808925	      0.63446162	    -10.24853949	      3.01833406	     14.35285029	    -27.71890930	     12.35151410	     -3.95980927	     23.54293352	      1.51645351	     15.16740350	    -16.91785164	      2.90730822	      9.61945294	     -2.11647246	     -4.09047866	     -0.82716892
      1.84000000	     -3.74889292	     -3.53070240	    113.45889455	     -0.62987080	      1.03889861	      0.62461004	     -9.71090913	      2.63927572	     14.44530859	    -29.76803941	     10.61023965	     -1.83550800	     23.22101576	      1.93504746	     15.82877622	    -17.86511580	      2.75498865	      9.03628178	     -2.01809123	     -4.42809673	     -0.78486241
      1.85000000	     -4.04574927	     -3.52442021	    112.69543992	     -0.63564110	      1.03992280	      0.61483139	     -9.00052869	      2.26568997	     14.47132367	    -32.04105026	      8.62194703	      0.43044951	     22.86360813	      2.29372368	     16.11923609	    -18.76607190	      2.86187815	      8.68762900	     -1.96503728	     -4.78658998	     -0.72199837
      1.86000000	     -4.36671729	     -3.51328704	    111.88346256	     -0.64108673	      1.04111829	      0.60517763	     -8.09934018	      1.88811493	     14.47344945	    -34.51357358	      6.42413123	      2.80000465	     22.44286889	      2.58215788	     16.01981174	    -19.53562535	      3.21049139	      8.50320266	     -1.94849659	     -5.16995050	     -0.63378499
      1.87000000	     -4.72040219	     -3.50576199	    111.01556236	     -0.64618973	      1.04244848	      0.59573240	     -7.00672599	      1.48795944	     14.45497725	    -37.14237951	      4.10286262	      5.13328096	     21.93310432	      2.81528594	     15.56561479	    -20.10262970	      3.71037551	      8.41821230	     -1.96975903	     -5.58457150	     -0.52739925
      1.88000000	     -5.10477963	     -3.50882883	    110.09353433	     -0.65094499	      1.04387740	      0.58655764	     -5.72705276	      1.05862862	     14.41834257	    -39.87336849	      1.79232389	      7.33164159	     21.31795886	      3.00693696	     14.82676177	    -20.41541612	      4.26058255	      8.37333482	     -2.02337492	     -6.03113487	     -0.40972077
      1.89000000	     -5.54152206	     -3.52783239	    109.10756316	     -0.65538085	      1.04534036	      0.57767568	     -4.28062664	      0.56443920	     14.35997427	    -42.65897786	     -0.29029268	      9.17557595	     20.60498940	      3.19176357	     13.78668950	    -20.48619914	      4.87042204	      8.31490602	     -2.10831686	     -6.52737972	     -0.29612383
      1.90000000	     -5.99922806	     -3.54496877	    108.10031450	     -0.65955805	      1.04685360	      0.56911881	     -2.71166920	      0.04704553	     14.27985746	    -45.41683865	     -2.05675585	     10.62838386	     19.79087225	      3.37897554	     12.63893401	    -20.32398091	      5.40958052	      8.23440815	     -2.23144919	     -7.03181100	     -0.22497744
      1.91000000	     -6.45896998	     -3.55336105	    107.09180727	     -0.66356091	      1.04840477	      0.56085054	     -1.05648682	     -0.48464139	     14.15058937	    -48.08358683	     -3.36388902	     11.58441184	     18.88941651	      3.57299079	     11.44312688	    -19.95649836	      5.87653327	      8.12063295	     -2.38445417	     -7.51226145	     -0.22107902
      1.92000000	     -6.93811114	     -3.50740387	    106.10719903	     -0.66742439	      1.05004647	      0.55281999	      0.58874183	     -1.03206821	     13.96876440	    -50.59589885	     -4.12721071	     11.83225423	     17.88462829	      3.80439252	     10.27502212	    -19.45910595	      6.27262088	      8.02427211	     -2.61984128	     -7.97930893	     -0.31319705
